<svg id="heart" xmlns="http://www.w3.org/2000/svg" width="114" height="99" viewBox="0 0 114 99">
  <path id="diversity_1_FILL0_wght400_GRAD0_opsz24" d="M3.681-795.005a46.209,46.209,0,0,1-2.712-7.972A35.012,35.012,0,0,1,0-811.168Q0-823.4,7.362-831.7A23.381,23.381,0,0,1,25.575-840,24.7,24.7,0,0,1,37.2-837.106a26.979,26.979,0,0,1,9.3,8.027,26.979,26.979,0,0,1,9.3-8.027A24.7,24.7,0,0,1,67.425-840a23.381,23.381,0,0,1,18.213,8.3Q93-823.4,93-811.168a35.012,35.012,0,0,1-.969,8.191,46.21,46.21,0,0,1-2.713,7.972,17.854,17.854,0,0,0-2.519-3.713,11.373,11.373,0,0,0-3.391-2.621,37.752,37.752,0,0,0,1.356-4.914,24.806,24.806,0,0,0,.484-4.914,20.779,20.779,0,0,0-5.134-14.307,16.3,16.3,0,0,0-12.691-5.788q-7.847,0-12.061,4.86T46.5-815.537q-4.65-6.116-8.864-10.921t-12.061-4.805a16.3,16.3,0,0,0-12.691,5.788A20.779,20.779,0,0,0,7.75-811.168a24.806,24.806,0,0,0,.484,4.914,37.753,37.753,0,0,0,1.356,4.914A11.373,11.373,0,0,0,6.2-798.718,17.854,17.854,0,0,0,3.681-795.005ZM0-757v-6.88a8.874,8.874,0,0,1,4.311-7.7q4.311-2.894,11.189-2.894,1.259,0,2.422.055a14.468,14.468,0,0,1,2.228.273,17.5,17.5,0,0,0-2.034,4.7,20.457,20.457,0,0,0-.678,5.351v7.1Zm23.25,0v-7.1q0-7.1,6.442-11.467T46.5-779.934q10.462,0,16.856,4.368T69.75-764.1v7.1Zm52.313,0v-7.1a21.944,21.944,0,0,0-.63-5.351,18.22,18.22,0,0,0-1.889-4.7,14.337,14.337,0,0,1,2.18-.273q1.114-.055,2.277-.055,6.975,0,11.237,2.894A8.9,8.9,0,0,1,93-763.88V-757ZM46.5-771.2a27.945,27.945,0,0,0-9.881,1.638q-4.359,1.638-5.134,3.822H61.612q-.872-2.184-5.183-3.822A27.843,27.843,0,0,0,46.5-771.2Zm-31-7.645a7.068,7.068,0,0,1-5.473-2.566,8.979,8.979,0,0,1-2.277-6.17,8.925,8.925,0,0,1,2.277-6.225,7.131,7.131,0,0,1,5.473-2.512,7.087,7.087,0,0,1,5.522,2.512,9.04,9.04,0,0,1,2.228,6.225,9.094,9.094,0,0,1-2.228,6.17A7.024,7.024,0,0,1,15.5-778.842Zm62,0a7.068,7.068,0,0,1-5.473-2.566,8.979,8.979,0,0,1-2.277-6.17,8.925,8.925,0,0,1,2.277-6.225,7.131,7.131,0,0,1,5.473-2.512,7.087,7.087,0,0,1,5.522,2.512,9.04,9.04,0,0,1,2.228,6.225,9.094,9.094,0,0,1-2.228,6.17A7.024,7.024,0,0,1,77.5-778.842Zm-31-4.368a10.61,10.61,0,0,1-8.234-3.822,13.5,13.5,0,0,1-3.391-9.283,13.444,13.444,0,0,1,3.391-9.338,10.674,10.674,0,0,1,8.234-3.768,10.63,10.63,0,0,1,8.283,3.768,13.56,13.56,0,0,1,3.342,9.338,13.613,13.613,0,0,1-3.342,9.283A10.566,10.566,0,0,1,46.5-783.211Zm0-17.474a3.543,3.543,0,0,0-2.761,1.256,4.52,4.52,0,0,0-1.114,3.113,4.52,4.52,0,0,0,1.114,3.112,3.543,3.543,0,0,0,2.761,1.256,3.543,3.543,0,0,0,2.761-1.256,4.52,4.52,0,0,0,1.114-3.112,4.52,4.52,0,0,0-1.114-3.113A3.543,3.543,0,0,0,46.5-800.684ZM46.5-796.316ZM46.6-765.737Z" transform="translate(10 840)" fill="#b71935"/>
  <text id="Problemas_cardíacos" data-name="Problemas cardíacos" transform="translate(0 96)" fill="#cf6679" font-size="12" font-family="Roboto-Bold, Roboto" font-weight="700"><tspan x="0" y="0">Problemas cardíacos</tspan></text>
</svg>
