<svg id="hearticon1" xmlns="http://www.w3.org/2000/svg" width="18.5" height="18.5" viewBox="0 0 18.5 18.5">
  <path id="diversity_1_FILL0_wght400_GRAD0_opsz24" d="M.732-829.971a11.174,11.174,0,0,1-.54-1.777A8.7,8.7,0,0,1,0-833.574a7.143,7.143,0,0,1,1.465-4.576A4.457,4.457,0,0,1,5.087-840a4.5,4.5,0,0,1,2.313.645,5.6,5.6,0,0,1,1.85,1.789,5.6,5.6,0,0,1,1.85-1.789A4.5,4.5,0,0,1,13.412-840a4.457,4.457,0,0,1,3.623,1.85,7.143,7.143,0,0,1,1.465,4.576,8.7,8.7,0,0,1-.193,1.826,11.173,11.173,0,0,1-.54,1.777,4.034,4.034,0,0,0-.5-.828,2.317,2.317,0,0,0-.674-.584,9.222,9.222,0,0,0,.27-1.1,6.174,6.174,0,0,0,.1-1.1,4.977,4.977,0,0,0-1.021-3.189,3.106,3.106,0,0,0-2.524-1.29,2.854,2.854,0,0,0-2.4,1.083q-.838,1.083-1.763,2.422-.925-1.363-1.763-2.434a2.867,2.867,0,0,0-2.4-1.071,3.106,3.106,0,0,0-2.524,1.29,4.977,4.977,0,0,0-1.021,3.189,6.174,6.174,0,0,0,.1,1.1,9.224,9.224,0,0,0,.27,1.1,2.317,2.317,0,0,0-.674.584A4.034,4.034,0,0,0,.732-829.971ZM0-821.5v-1.534a2.042,2.042,0,0,1,.858-1.716,3.605,3.605,0,0,1,2.226-.645q.251,0,.482.012a2.589,2.589,0,0,1,.443.061,4.156,4.156,0,0,0-.4,1.047,5.078,5.078,0,0,0-.135,1.193v1.582Zm4.625,0v-1.582a3.059,3.059,0,0,1,1.282-2.556,5.38,5.38,0,0,1,3.343-.974,5.371,5.371,0,0,1,3.353.974,3.067,3.067,0,0,1,1.272,2.556v1.582Zm10.406,0v-1.582a5.452,5.452,0,0,0-.125-1.193,4.354,4.354,0,0,0-.376-1.047,2.566,2.566,0,0,1,.434-.061q.222-.012.453-.012a3.6,3.6,0,0,1,2.235.645,2.049,2.049,0,0,1,.848,1.716v1.534ZM9.25-824.664a5.024,5.024,0,0,0-1.966.365q-.867.365-1.021.852h5.993a1.711,1.711,0,0,0-1.031-.852A5.005,5.005,0,0,0,9.25-824.664Zm-6.167-1.7a1.35,1.35,0,0,1-1.089-.572,2.148,2.148,0,0,1-.453-1.375,2.135,2.135,0,0,1,.453-1.388,1.36,1.36,0,0,1,1.089-.56,1.351,1.351,0,0,1,1.1.56,2.166,2.166,0,0,1,.443,1.388,2.178,2.178,0,0,1-.443,1.375A1.342,1.342,0,0,1,3.083-826.368Zm12.333,0a1.35,1.35,0,0,1-1.089-.572,2.148,2.148,0,0,1-.453-1.375,2.135,2.135,0,0,1,.453-1.388,1.36,1.36,0,0,1,1.089-.56,1.351,1.351,0,0,1,1.1.56,2.166,2.166,0,0,1,.443,1.388,2.178,2.178,0,0,1-.443,1.375A1.342,1.342,0,0,1,15.417-826.368Zm-6.167-.974a2.026,2.026,0,0,1-1.638-.852,3.23,3.23,0,0,1-.674-2.069,3.218,3.218,0,0,1,.674-2.081,2.035,2.035,0,0,1,1.638-.84,2.026,2.026,0,0,1,1.648.84,3.248,3.248,0,0,1,.665,2.081,3.261,3.261,0,0,1-.665,2.069A2.017,2.017,0,0,1,9.25-827.342Zm0-3.895a.675.675,0,0,0-.549.28,1.083,1.083,0,0,0-.222.694,1.083,1.083,0,0,0,.222.694.675.675,0,0,0,.549.28.675.675,0,0,0,.549-.28,1.083,1.083,0,0,0,.222-.694,1.083,1.083,0,0,0-.222-.694A.675.675,0,0,0,9.25-831.237ZM9.25-830.263ZM9.269-823.447Z" transform="translate(0 840)" fill="#fff"/>
</svg>
